<svg id="Layer_1" data-name="Layer 1" xmlns="http://www.w3.org/2000/svg" viewBox="0 0 384.49 314.85"><defs><style>.cls-1{fill:#fff;}.cls-2{font-size:60px;font-family:MyriadPro-Regular, Myriad Pro;}.cls-12,.cls-2{fill:#1fbcf4;}.cls-3{letter-spacing:0.02em;}.cls-4{letter-spacing:0em;}.cls-5{letter-spacing:0em;}.cls-6{letter-spacing:-0.04em;}.cls-7{letter-spacing:-0.05em;}.cls-8{letter-spacing:0em;}.cls-9{letter-spacing:-0.01em;}.cls-10{letter-spacing:-0.01em;}.cls-11{fill:#02415b;}.cls-13{fill:#35b1de;}</style></defs><title>KarnalTravel</title><rect class="cls-1" y="161.08" width="384.41" height="153.76"/><text class="cls-2" transform="translate(27.14 237.97)"><tspan class="cls-3">K</tspan><tspan class="cls-4" x="33.48" y="0">a</tspan><tspan class="cls-5" x="62.4" y="0">r</tspan><tspan x="81.72" y="0">anal</tspan><tspan class="cls-6" x="187.02" y="0"> </tspan><tspan class="cls-7" x="197.28" y="0">T</tspan><tspan class="cls-8" x="224.4" y="0">r</tspan><tspan class="cls-9" x="243.72" y="0">a</tspan><tspan class="cls-10" x="272.16" y="0">v</tspan><tspan x="300.42" y="0">el </tspan></text><polyline class="cls-11" points="71.03 101.19 81.31 104.13 80.15 75.13 81.8 68 86.2 53.25 89.9 46.72 97.28 34.85 108.54 23.57 116.76 17.29 125.87 11.99 140.33 4.64 158.37 0.9 168.74 0 175.35 0.23 180.22 0.35 187.16 0.58 196.46 1.27 199.44 1.96 205.12 3.34 213.11 6.02 221.97 10 229.57 13.89 235.74 18.38 242.18 23.48 243.34 24.69 244.49 26.42 248.73 29.79 252.29 33.34 255.18 37.57 256.72 39.73 259.8 43.45 262.01 47.86 264.61 52.32 265.57 54.86 265.57 56.24 265.57 57.45 265.57 58.4 256.24 66.36 223.52 90.69 189.54 110.83 161.71 122.02 149.97 125.22 136.4 127.29 116.66 127.29 104.34 125.82 93.94 122.19 84.41 117.09 74.4 109.75 68.34 101.36"/><path class="cls-12" d="M178.37,273.69c.91-1.05,4,.61,9.24,1a30.28,30.28,0,0,0,4.81,0c2.92-.26,6.74-.67,11.17-1.38,0,0,5.64-.91,10.58-2.08,14.17-3.35,28.16-11,30.42-12.27,8-4.45,13.22-8.37,22.53-15.39,8.12-6.12,13.16-10.61,15-12.27,3.47-3.12,3.71-3.57,11.17-10.89,7-6.9,13.93-13.89,21-20.75,4.28-4.16,8-7.7,8.86-10.37.1-.31.5-1.7,1.16-1.73s1,.85,1.34,1.56a12,12,0,0,1,1.16,3.63,11.59,11.59,0,0,1,0,3.45,59.16,59.16,0,0,1,1.15,8.65,64.75,64.75,0,0,1-1,15,50.68,50.68,0,0,1-8.86,23.51,99.53,99.53,0,0,1-9.81,12.45c-5.92,6.64-8.87,10-12.9,13.31-8.39,7-16.71,10.28-22.72,12.62-14.16,5.51-25.82,6.37-42.55,7.6a66,66,0,0,1-11.16,0,63.77,63.77,0,0,1-16.37-3.63,35,35,0,0,0-11.74-4.32,33.69,33.69,0,0,1-7.7-2.07c-2.14-.89-3.87-1.9-4.62-3.63C178.29,275.15,177.9,274.23,178.37,273.69Z" transform="translate(-48.56 -121.76)"/><path class="cls-11" d="M307.58,148.29c9-.81,16.47-1.86,22-2.74,7.76-1.25,11.64-1.88,16.78-3.05,8.23-1.89,11.78-3.29,12.21-2.45.84,1.69-12.12,9.79-14,11-6,3.73-13.72,7.62-13.73,7.63l-4,.61C324.75,159.58,319.78,157.53,307.58,148.29Z" transform="translate(-48.56 -121.76)"/><polygon class="cls-13" points="291.28 43.85 311.01 19.24 307.35 38.97 301.14 64.8 300.02 66.84 291.28 43.85"/></svg>